<mxfile host="app.diagrams.net" modified="2024-05-22T00:56:12.985Z" agent="Mozilla/5.0 (Windows NT 10.0; Win64; x64) AppleWebKit/537.36 (KHTML, like Gecko) Chrome/125.0.0.0 Safari/537.36" etag="C-ugOPtPEe_T_x6LeYqB" version="24.4.4" type="device">
  <diagram name="Página-1" id="J5FDIzUG-unwPhtC_PGh">
    <mxGraphModel dx="4148" dy="2196" grid="1" gridSize="10" guides="1" tooltips="1" connect="1" arrows="1" fold="1" page="1" pageScale="1" pageWidth="1169" pageHeight="827" math="0" shadow="0">
      <root>
        <mxCell id="0" />
        <mxCell id="1" parent="0" />
        <mxCell id="sXUmuESlsFK34mPvLsPc-24" value="" style="rounded=0;whiteSpace=wrap;html=1;" parent="1" vertex="1">
          <mxGeometry x="110" y="80" width="530" height="690" as="geometry" />
        </mxCell>
        <mxCell id="sXUmuESlsFK34mPvLsPc-1" value="&lt;font style=&quot;font-size: 22px;&quot;&gt;Target&lt;/font&gt;" style="text;html=1;align=center;verticalAlign=middle;resizable=0;points=[];autosize=1;strokeColor=none;fillColor=none;" parent="1" vertex="1">
          <mxGeometry x="230" y="174" width="80" height="40" as="geometry" />
        </mxCell>
        <mxCell id="sXUmuESlsFK34mPvLsPc-7" value="" style="edgeStyle=orthogonalEdgeStyle;rounded=0;orthogonalLoop=1;jettySize=auto;html=1;exitX=0.496;exitY=0.968;exitDx=0;exitDy=0;exitPerimeter=0;" parent="1" source="sXUmuESlsFK34mPvLsPc-2" target="sXUmuESlsFK34mPvLsPc-6" edge="1">
          <mxGeometry relative="1" as="geometry" />
        </mxCell>
        <mxCell id="sXUmuESlsFK34mPvLsPc-2" value="&lt;font style=&quot;font-size: 22px;&quot;&gt;Input&lt;/font&gt;" style="text;html=1;align=center;verticalAlign=middle;resizable=0;points=[];autosize=1;strokeColor=none;fillColor=none;" parent="1" vertex="1">
          <mxGeometry x="400" y="159" width="70" height="40" as="geometry" />
        </mxCell>
        <mxCell id="sXUmuESlsFK34mPvLsPc-3" value="" style="endArrow=classic;html=1;rounded=0;exitX=0.52;exitY=1.007;exitDx=0;exitDy=0;exitPerimeter=0;entryX=0.5;entryY=0;entryDx=0;entryDy=0;" parent="1" source="sXUmuESlsFK34mPvLsPc-1" target="sXUmuESlsFK34mPvLsPc-5" edge="1">
          <mxGeometry width="50" height="50" relative="1" as="geometry">
            <mxPoint x="300" y="370" as="sourcePoint" />
            <mxPoint x="270" y="360" as="targetPoint" />
          </mxGeometry>
        </mxCell>
        <mxCell id="sXUmuESlsFK34mPvLsPc-12" value="" style="edgeStyle=orthogonalEdgeStyle;rounded=0;orthogonalLoop=1;jettySize=auto;html=1;" parent="1" source="sXUmuESlsFK34mPvLsPc-5" target="sXUmuESlsFK34mPvLsPc-11" edge="1">
          <mxGeometry relative="1" as="geometry" />
        </mxCell>
        <mxCell id="sXUmuESlsFK34mPvLsPc-5" value="MAE" style="rounded=0;whiteSpace=wrap;html=1;fillColor=#fad7ac;strokeColor=#b46504;" parent="1" vertex="1">
          <mxGeometry x="210" y="440" width="120" height="60" as="geometry" />
        </mxCell>
        <mxCell id="sXUmuESlsFK34mPvLsPc-9" value="" style="edgeStyle=orthogonalEdgeStyle;rounded=0;orthogonalLoop=1;jettySize=auto;html=1;" parent="1" source="sXUmuESlsFK34mPvLsPc-6" target="sXUmuESlsFK34mPvLsPc-8" edge="1">
          <mxGeometry relative="1" as="geometry" />
        </mxCell>
        <mxCell id="sXUmuESlsFK34mPvLsPc-6" value="Generador" style="whiteSpace=wrap;html=1;fillColor=#e1d5e7;strokeColor=#9673a6;" parent="1" vertex="1">
          <mxGeometry x="375" y="340" width="120" height="60" as="geometry" />
        </mxCell>
        <mxCell id="sXUmuESlsFK34mPvLsPc-8" value="Discriminador" style="whiteSpace=wrap;html=1;fillColor=#d5e8d4;strokeColor=#82b366;" parent="1" vertex="1">
          <mxGeometry x="375" y="440" width="120" height="60" as="geometry" />
        </mxCell>
        <mxCell id="sXUmuESlsFK34mPvLsPc-10" value="" style="endArrow=classic;html=1;rounded=0;exitX=0.5;exitY=1;exitDx=0;exitDy=0;entryX=0.5;entryY=0;entryDx=0;entryDy=0;" parent="1" source="sXUmuESlsFK34mPvLsPc-6" target="sXUmuESlsFK34mPvLsPc-5" edge="1">
          <mxGeometry width="50" height="50" relative="1" as="geometry">
            <mxPoint x="320" y="380" as="sourcePoint" />
            <mxPoint x="370" y="330" as="targetPoint" />
          </mxGeometry>
        </mxCell>
        <mxCell id="sXUmuESlsFK34mPvLsPc-11" value="Lambda" style="whiteSpace=wrap;html=1;rounded=0;fillColor=#fad9d5;strokeColor=#ae4132;" parent="1" vertex="1">
          <mxGeometry x="210" y="540" width="120" height="60" as="geometry" />
        </mxCell>
        <mxCell id="sXUmuESlsFK34mPvLsPc-13" value="&lt;font style=&quot;font-size: 32px;&quot;&gt;+&lt;/font&gt;" style="ellipse;whiteSpace=wrap;html=1;aspect=fixed;" parent="1" vertex="1">
          <mxGeometry x="330" y="640" width="60" height="60" as="geometry" />
        </mxCell>
        <mxCell id="sXUmuESlsFK34mPvLsPc-14" value="" style="endArrow=classic;html=1;rounded=0;exitX=0.5;exitY=1;exitDx=0;exitDy=0;entryX=0;entryY=0.5;entryDx=0;entryDy=0;" parent="1" source="sXUmuESlsFK34mPvLsPc-11" target="sXUmuESlsFK34mPvLsPc-13" edge="1">
          <mxGeometry width="50" height="50" relative="1" as="geometry">
            <mxPoint x="240" y="680" as="sourcePoint" />
            <mxPoint x="270" y="670" as="targetPoint" />
            <Array as="points">
              <mxPoint x="270" y="670" />
            </Array>
          </mxGeometry>
        </mxCell>
        <mxCell id="sXUmuESlsFK34mPvLsPc-15" value="Entropía Cruzada Sigmoidea" style="whiteSpace=wrap;html=1;rounded=0;fillColor=#b1ddf0;strokeColor=#10739e;" parent="1" vertex="1">
          <mxGeometry x="375" y="540" width="120" height="60" as="geometry" />
        </mxCell>
        <mxCell id="sXUmuESlsFK34mPvLsPc-16" value="&lt;font style=&quot;font-size: 24px;&quot;&gt;GENERADOR&lt;/font&gt;" style="text;html=1;align=center;verticalAlign=middle;resizable=0;points=[];autosize=1;strokeColor=none;fillColor=none;" parent="1" vertex="1">
          <mxGeometry x="270" y="109" width="180" height="40" as="geometry" />
        </mxCell>
        <mxCell id="sXUmuESlsFK34mPvLsPc-17" value="" style="endArrow=classic;html=1;rounded=0;exitX=0.5;exitY=1;exitDx=0;exitDy=0;entryX=1;entryY=0.5;entryDx=0;entryDy=0;fillColor=#f8cecc;strokeColor=#b85450;" parent="1" source="sXUmuESlsFK34mPvLsPc-13" target="sXUmuESlsFK34mPvLsPc-6" edge="1">
          <mxGeometry width="50" height="50" relative="1" as="geometry">
            <mxPoint x="380" y="760" as="sourcePoint" />
            <mxPoint x="560" y="380" as="targetPoint" />
            <Array as="points">
              <mxPoint x="360" y="720" />
              <mxPoint x="600" y="720" />
              <mxPoint x="600" y="370" />
            </Array>
          </mxGeometry>
        </mxCell>
        <mxCell id="sXUmuESlsFK34mPvLsPc-18" value="" style="endArrow=classic;html=1;rounded=0;exitX=0.5;exitY=1;exitDx=0;exitDy=0;entryX=0.5;entryY=0;entryDx=0;entryDy=0;" parent="1" source="sXUmuESlsFK34mPvLsPc-8" target="sXUmuESlsFK34mPvLsPc-15" edge="1">
          <mxGeometry width="50" height="50" relative="1" as="geometry">
            <mxPoint x="490" y="560" as="sourcePoint" />
            <mxPoint x="540" y="510" as="targetPoint" />
          </mxGeometry>
        </mxCell>
        <mxCell id="sXUmuESlsFK34mPvLsPc-19" value="" style="endArrow=classic;html=1;rounded=0;exitX=0.5;exitY=1;exitDx=0;exitDy=0;entryX=1;entryY=0.5;entryDx=0;entryDy=0;" parent="1" source="sXUmuESlsFK34mPvLsPc-15" target="sXUmuESlsFK34mPvLsPc-13" edge="1">
          <mxGeometry width="50" height="50" relative="1" as="geometry">
            <mxPoint x="450" y="680" as="sourcePoint" />
            <mxPoint x="430" y="670" as="targetPoint" />
            <Array as="points">
              <mxPoint x="435" y="670" />
            </Array>
          </mxGeometry>
        </mxCell>
        <mxCell id="sXUmuESlsFK34mPvLsPc-20" value="" style="endArrow=classic;html=1;rounded=0;exitX=0.502;exitY=0.925;exitDx=0;exitDy=0;exitPerimeter=0;entryX=0;entryY=0.5;entryDx=0;entryDy=0;" parent="1" edge="1">
          <mxGeometry width="50" height="50" relative="1" as="geometry">
            <mxPoint x="435.1399999999999" y="283" as="sourcePoint" />
            <mxPoint x="375" y="473" as="targetPoint" />
            <Array as="points">
              <mxPoint x="350" y="283" />
              <mxPoint x="350" y="473" />
            </Array>
          </mxGeometry>
        </mxCell>
        <mxCell id="sXUmuESlsFK34mPvLsPc-22" value="" style="edgeStyle=orthogonalEdgeStyle;rounded=0;orthogonalLoop=1;jettySize=auto;html=1;" parent="1" source="sXUmuESlsFK34mPvLsPc-21" target="sXUmuESlsFK34mPvLsPc-15" edge="1">
          <mxGeometry relative="1" as="geometry" />
        </mxCell>
        <mxCell id="sXUmuESlsFK34mPvLsPc-21" value="1s" style="text;html=1;align=center;verticalAlign=middle;resizable=0;points=[];autosize=1;strokeColor=none;fillColor=none;" parent="1" vertex="1">
          <mxGeometry x="530" y="555" width="40" height="30" as="geometry" />
        </mxCell>
        <mxCell id="Cujf3UECvANiZMjNYGIv-31" value="Bilinear Upscaling" style="whiteSpace=wrap;html=1;rounded=0;fillColor=#fad9d5;strokeColor=#ae4132;" vertex="1" parent="1">
          <mxGeometry x="293" y="256" width="120" height="60" as="geometry" />
        </mxCell>
        <mxCell id="Cujf3UECvANiZMjNYGIv-32" value="" style="endArrow=classic;html=1;rounded=0;entryX=0.998;entryY=0.457;entryDx=0;entryDy=0;entryPerimeter=0;" edge="1" parent="1" target="Cujf3UECvANiZMjNYGIv-31">
          <mxGeometry width="50" height="50" relative="1" as="geometry">
            <mxPoint x="435" y="283" as="sourcePoint" />
            <mxPoint x="530" y="250" as="targetPoint" />
          </mxGeometry>
        </mxCell>
      </root>
    </mxGraphModel>
  </diagram>
</mxfile>
